<?xml version="1.0" encoding="UTF-8" standalone="no"?>
<!-- Created with Inkscape (http://www.inkscape.org/) -->

<svg
   xmlns:dc="http://purl.org/dc/elements/1.1/"
   xmlns:cc="http://creativecommons.org/ns#"
   xmlns:rdf="http://www.w3.org/1999/02/22-rdf-syntax-ns#"
   xmlns:svg="http://www.w3.org/2000/svg"
   xmlns="http://www.w3.org/2000/svg"
   xmlns:sodipodi="http://sodipodi.sourceforge.net/DTD/sodipodi-0.dtd"
   xmlns:inkscape="http://www.inkscape.org/namespaces/inkscape"
   width="259.50272"
   height="470.40463"
   id="svg3214"
   version="1.1"
   inkscape:version="0.48.4 r9939"
   sodipodi:docname="logo.png">
  <defs
     id="defs3216" />
  <sodipodi:namedview
     id="base"
     pagecolor="#ffffff"
     bordercolor="#666666"
     borderopacity="1.0"
     inkscape:pageopacity="0.0"
     inkscape:pageshadow="2"
     inkscape:zoom="1.4"
     inkscape:cx="118.58707"
     inkscape:cy="190.73947"
     inkscape:document-units="px"
     inkscape:current-layer="layer1"
     showgrid="false"
     fit-margin-top="0"
     fit-margin-left="0"
     fit-margin-right="0"
     fit-margin-bottom="0"
     inkscape:window-width="1855"
     inkscape:window-height="1056"
     inkscape:window-x="65"
     inkscape:window-y="24"
     inkscape:window-maximized="1" />
  <metadata
     id="metadata3219">
    <rdf:RDF>
      <cc:Work
         rdf:about="">
        <dc:format>image/svg+xml</dc:format>
        <dc:type
           rdf:resource="http://purl.org/dc/dcmitype/StillImage" />
        <dc:title></dc:title>
      </cc:Work>
    </rdf:RDF>
  </metadata>
  <g
     inkscape:label="Layer 1"
     inkscape:groupmode="layer"
     id="layer1"
     transform="translate(-244.88638,-293.48215)">
    <path
       style="fill:#ffffff;fill-opacity:1;stroke:#c0392b;stroke-width:3;stroke-linejoin:round;stroke-miterlimit:4;stroke-opacity:1;stroke-dasharray:none;marker-start:none"
       d="m 332.82733,762.38679 c -3.33505,-3.50011 3.531,-3.33597 7.59866,-6.93379 17.86627,-15.80262 17.16749,-14.77772 23.37023,-43.68655 1.72972,-8.06166 3.63802,-14.96614 5.38952,-19.5 2.26799,-5.87084 1.19832,-23.88161 -1.9005,-32 -1.25962,-3.3 -3.32652,-9.14212 -4.5931,-12.9825 -1.26657,-3.84037 -3.5568,-8.29461 -5.08938,-9.89831 -1.61982,-1.69499 -2.08158,-3.91397 -2.78651,-5.57637 -1.45804,-3.43841 -2.40719,-3.81405 -5.12737,-7.30549 -1.63882,-2.10348 -2.72591,-2.55199 -3.34928,-8.43003 -0.39705,-3.74402 -1.42285,-8.3823 -2.27955,-10.3073 -0.85671,-1.925 -0.55188,-6.20555 -2.15073,-8.39826 -3.56598,-4.89049 -4.83254,-4.99515 -8.85111,-10.57969 -2.98049,-4.14194 -4.97339,-4.61283 -8.22044,-9.78132 -1.73323,-2.75887 -5.25307,-4.80665 -7.4354,-7.9792 -4.65302,-6.7643 -7.06792,-14.93979 -8.60144,-17.47829 -1.77429,-2.93706 -0.85654,-4.21306 -8.68019,-8.14096 -4.58048,-2.29965 -8.21472,-4.96145 -10,-7.32421 -3.26836,-4.32558 -7.10672,-8.15654 -14.08879,-14.06162 -2.75963,-2.33395 -6.42719,-6.74136 -8.15013,-9.79425 -1.72294,-3.05288 -3.80301,-5.80795 -4.62238,-6.12237 -0.81936,-0.31442 -3.07257,-3.99748 -5.00713,-8.18458 -1.93456,-4.18709 -4.3376,-8.52243 -5.34009,-9.63407 -4.39584,-4.87449 -7.43899,-16.20919 -6.27686,-23.37922 0.59209,-3.65308 -0.0153,-9.4627 0.49274,-12.85974 0.81246,-5.43251 0.89797,-5.56573 1.79139,-8.6856 0.7984,-2.78806 1.31586,-4.59724 2.45416,-9.37001 1.21833,-5.10834 1.40441,-7.03231 2.26078,-10.43244 0.6116,-2.42829 1.67658,-5.53599 2.25866,-7.9122 1.86541,-7.61509 3.43859,-10.45566 6.20268,-14.13984 2.19402,-2.92435 2.2919,-3.03299 3.72047,-5.64641 1.52858,-2.79638 1.66663,-3.60909 3.47587,-6.94039 1.81083,-3.33423 1.9378,-3.88236 4.92586,-10.00601 1.71337,-3.51132 2.98716,-6.89508 4.02412,-11.03187 0.64488,-2.57263 1.62713,-4.61477 1.81654,-5.05372 0.19891,-0.461 0.35614,-0.37417 1.38068,-1.98156 0.7476,-1.1729 0.83095,-1.19516 2.05334,-4.42634 1.11789,-2.95496 6.24558,-4.74781 8.48093,-6.86776 2.06371,-1.95717 4.58986,-4.61753 9.36665,-6.86594 7.74,-3.64317 8.62981,-3.12268 13.05152,-4.37954 14.73255,-4.18772 17.73404,-9.28162 29.694,-11.33795 3.37416,-0.58014 11.56407,-0.90414 14.03602,-1.45511 2.21023,-0.49264 4.40986,-0.98796 6.74231,-1.30716 4.90651,-0.67146 9.95719,-4.1918 14.34572,-4.98593 7.06126,-1.27777 10.62566,-2.59337 16.50804,-11.66052 10.51297,-16.20478 28.25945,-16.77662 49.22906,-1.58631 4.37444,3.16882 4.71416,4.89253 1.88031,9.54039 -2.46363,4.04064 -4.53579,4.09034 -9.22954,0.22136 -12.07524,-9.95343 -26.43045,-8.55022 -29.86686,2.91946 -1.2133,4.04964 1.60379,9.33186 3.16974,11.10918 0.77877,0.88388 1.88591,1.41111 3.4424,2.43431 1.57022,1.03222 3.93001,2.70695 6.11467,3.06277 2.12225,0.34565 5.70792,1.50021 7.96816,2.56569 2.26024,1.06548 4.57099,1.93723 5.13499,1.93723 0.564,0 1.7823,1.15509 2.70733,2.56687 3.24081,4.9461 5.76576,4.80038 9.41526,6.43313 3.24569,1.45209 3.49563,1.49822 6.38962,3.81175 6.32008,5.05243 9.83861,9.4869 12.11135,11.18825 1.85543,1.38896 2.00057,1.34516 2.63192,1.7775 2.2904,1.56845 4.674,5.05945 6.89484,8.16885 1.62856,2.28014 5.51074,4.44823 8.95512,9.43071 2.85585,4.13113 6.2287,8.32625 7.49523,9.32251 3.69146,2.9037 7.47359,9.40232 8.6137,14.80043 0.58082,2.75 2.99332,6.86726 3.19649,9.70086 0.38096,5.31319 0.71047,5.44417 0.90962,10.5 0.12833,3.25805 -1.35607,8.72414 -1.50912,12.29914 -0.15306,3.575 -0.62023,8.60172 -1.03817,11.1705 -0.54531,3.35161 -0.30703,5.99959 0.84382,9.37713 1.35856,3.98715 1.49792,7.62982 0.91166,23.8295 -0.76805,21.22288 1.20309,22.1804 0.24574,30.17807 -0.58082,4.85211 -0.32635,4.87492 -1.8239,14.4411 -1.70302,10.87872 -5.26535,13.76532 -7.31606,20.60252 -3.52767,11.76151 -0.41551,14.10312 -12.06463,26.56445 -10.65377,11.39659 -13.11244,6.23716 -26.31434,12.27039 l -7.17857,3.28059 -7.92857,2.35697 c -4.33497,1.28868 -9.56034,4.98964 -25.70373,10.00833 -13.22432,4.11121 -26.8177,10.36589 -22.56803,22.18133 2.4346,6.76897 2.99435,43.65713 0.80517,53.0615 -2.08609,8.9615 -5.95882,20.17754 -8.40954,24.3554 -1.02526,1.7478 -2.58155,6.0228 -3.45843,9.5 -8.82746,35.00466 -22.2583,41.48758 -38.32957,47.92729 z"
       id="path3197"
       inkscape:connector-curvature="0"
       sodipodi:nodetypes="cssssssssssssssssssssssssssssssssssssssssssssssssssssssssssssssssssssssssscsssssscc" />
  </g>
</svg>
