<?xml version="1.0" encoding="UTF-8" standalone="no"?>
<!-- Created with Inkscape (http://www.inkscape.org/) -->

<svg
   xmlns:dc="http://purl.org/dc/elements/1.1/"
   xmlns:cc="http://creativecommons.org/ns#"
   xmlns:rdf="http://www.w3.org/1999/02/22-rdf-syntax-ns#"
   xmlns:svg="http://www.w3.org/2000/svg"
   xmlns="http://www.w3.org/2000/svg"
   xmlns:sodipodi="http://sodipodi.sourceforge.net/DTD/sodipodi-0.dtd"
   xmlns:inkscape="http://www.inkscape.org/namespaces/inkscape"
   id="svg3055"
   version="1.1"
   inkscape:version="0.48.4 r9939"
   width="256.43781"
   height="470.74585"
   sodipodi:docname="pepper.svg">
  <metadata
     id="metadata3061">
    <rdf:RDF>
      <cc:Work
         rdf:about="">
        <dc:format>image/svg+xml</dc:format>
        <dc:type
           rdf:resource="http://purl.org/dc/dcmitype/StillImage" />
        <dc:title></dc:title>
      </cc:Work>
    </rdf:RDF>
  </metadata>
  <defs
     id="defs3059" />
  <sodipodi:namedview
     pagecolor="#ffffff"
     bordercolor="#666666"
     borderopacity="1"
     objecttolerance="10"
     gridtolerance="10"
     guidetolerance="10"
     inkscape:pageopacity="0"
     inkscape:pageshadow="2"
     inkscape:window-width="1855"
     inkscape:window-height="1056"
     id="namedview3057"
     showgrid="false"
     inkscape:zoom="1.3010765"
     inkscape:cx="83.107434"
     inkscape:cy="212.99158"
     inkscape:window-x="65"
     inkscape:window-y="24"
     inkscape:window-maximized="1"
     inkscape:current-layer="svg3055"
     fit-margin-top="0"
     fit-margin-left="0"
     fit-margin-right="0"
     fit-margin-bottom="0" />
  <path
     style="fill:#000000;fill-opacity:1"
     d="m 67.469569,470.72154 c -1.93401,-0.07 -4.75308,-2.08666 -4.25,-3.95541 0.37767,-1.40288 2.92807,-0.36364 4.25,-0.9663 14.69208,-6.698 28.9135,-16.07437 39.086351,-28.61364 5.98253,-7.3742 8.44252,-17.05189 11.72739,-25.96139 1.36913,-3.71346 2.76553,-7.48315 3.30607,-11.40388 1.59053,-11.53669 1.80207,-23.47905 -0.28527,-34.93628 -1.14982,-6.31126 -3.83117,-12.29614 -6.63992,-18.06372 -0.99281,-2.03868 -2.50405,-3.7885 -3.57954,-5.7848 -1.07672,-1.99859 -1.69923,-4.23062 -2.86508,-6.17857 -1.29261,-2.15975 -3.28985,-3.84988 -4.53624,-6.03663 -1.69655,-2.97656 -2.84665,-6.24753 -3.923511,-9.5 -1.12146,-3.3872 -1.80522,-6.90463 -2.62535,-10.37712 -0.68436,-2.89761 -0.25956,-6.24957 -1.9149,-8.72432 -2.51408,-3.75857 -7.68626,-4.82346 -11.1363,-7.74659 -3.36868,-2.85419 -6.87873,-5.75747 -9.24701,-9.48382 -1.68237,-2.6471 -2.04773,-5.93681 -3.31069,-8.80778 -2.76176,-6.27804 -5.27784,-12.80012 -9.306,-18.35125 -2.40095,-3.3087 -5.53986,-6.04624 -8.67856,-8.66552 -3.01419,-2.51538 -6.66325,-4.19688 -9.67893,-6.71047 -5.26277,-4.38656 -9.93379,-9.4535 -14.56166,-14.50539 -2.64043,-2.88235 -5.15366,-5.88707 -7.51787,-9 -1.6225,-2.13634 -3.08503,-4.39044 -4.56521,-6.62774 -1.96087,-2.96387 -3.86966,-5.9631 -5.71541,-9 -1.8021298,-2.96512 -3.9125598,-5.79017 -5.2303498,-9 -3.06785,-7.47255 -5.16427,-15.43567 -6.05856996,-23.46381 -0.4656,-4.17969 -0.0912,-8.43258 0.38869,-12.61065 0.32935,-2.86727 1.01811996,-5.68553 1.70246996,-8.48935 0.72067,-2.95262 1.81608,-5.80572 2.52745,-8.76059 0.89946,-3.73612 1.35612,-7.56754 2.19567,-11.31757 0.75105,-3.3547 1.39142,-6.7554 2.54024,-9.99551 1.4554798,-4.105 3.2793098,-8.10268 5.4777198,-11.86252 1.19938,-2.05125 2.90747,-3.76814 4.17432,-5.77842 1.48536,-2.357001 2.61472,-4.921471 4,-7.338641 1.29059,-2.25194 2.85294,-4.350794 4.01518,-6.671582 2.77391,-5.539021 4.73164,-11.450967 7.0105,-17.211358 0.1854,-0.468636 0.1024,-0.756372 0.54199,-1.411445 0.43959,-0.655073 1.12649,-1.653494 1.50555,-2.930943 0.37906,-1.277449 0.87106,-1.883504 2.65652,-4.328178 1.78546,-2.444674 5.10761,-6.493206 8.29745,-9.062109 3.28225,-2.643318 7.05783,-4.691238 10.93032,-6.353795 2.67702,-1.149311 5.57566,-1.694969 8.38859,-2.453102 8.07969,-2.177615 16.3555,-3.617905 24.37233,-6.016609 2.91347,-0.871734 5.7478,-1.989923 8.6027,-3.037651 4.148581,-1.522495 8.188991,-3.344779 12.388631,-4.720148 3.28454,-1.075675 6.69625,-1.726517 9.99583,-2.755133 3.34258,-1.042022 6.72119,-2.03036 9.9183,-3.457639 5.67559,-2.533739 10.86324,-6.04351 16.32502,-9.010184 8.25254,-4.4825337 15.45713,-13.15519771 24.84765,-13.28053971 10.88388,-0.145274 32.25746,4.29957201 29.1997,14.61836971 -0.65274,2.202758 -10.704,-7.1797167 -16.44894,-6.0922437 -10.76562,2.0378447 -23.66605,10.9689007 -24.51902,21.8924387 -0.14753,1.889341 2.07865,3.271159 3.60166,4.398911 0.68646,0.508306 1.59286,0.619939 2.37004,0.97432 2.71954,1.240059 5.33663,2.693542 8.01227,4.02568 4.96668,2.472795 10.10087,4.626999 14.92701,7.363958 3.04121,1.724705 5.95391,3.675153 8.81072,5.69065 3.01672,2.128314 5.95841,4.370523 8.78125,6.75 2.937,2.475707 5.6977,5.155009 8.46774,7.816205 1.44333,1.386622 2.84088,2.820237 4.24615,4.245424 1.95337,1.98106 3.85768,4.010224 5.81763,5.984771 2.92715,2.948947 6.08133,5.677461 8.87344,8.75458 2.85397,3.145292 5.63925,6.382472 8.02762,9.894412 3.61186,5.311001 6.88785,10.901751 9.45411,16.789581 1.37194,3.14767 2.55639,6.42781 3.13479,9.8124 0.4893,2.86321 0.38219,5.80847 0.25521,8.71041 -0.17881,4.08647 -1.03967,8.11584 -1.42941,12.18761 -0.36705,3.83467 -0.8675,7.67269 -0.8556,11.52487 0.0106,3.43862 0.62279,6.85012 0.82727,10.28267 0.45574,7.65056 0.70588,15.31322 0.89001,22.97513 0.23257,9.67739 1.90171,19.49742 0.27114,29.03928 -0.99609,5.829 -4.48916,10.97348 -6.04715,16.67805 -1.62322,5.9434 -1.79316,12.22055 -3.4069,18.16653 -2.59892,9.57596 -3.2824,20.7672 -10.0573,28.01662 -6.35999,6.80546 -17.19517,7.18751 -25.6025,11.19757 -5.55951,2.65173 -10.68646,6.21858 -16.40901,8.49723 -8.55444,3.40628 -18.60225,2.9809 -26.54671,7.63566 -9.29747,5.44751 -18.92864,12.74978 -22.98379,22.73348 -6.51378,16.03681 3.62531,34.80927 0.99869,51.91803 -1.32658,8.64083 -5.38113,16.63887 -8.34704,24.86245 -1.26761,3.51469 -1.832,7.44016 -4.03631,10.45693 -16.60891,22.7306 -37.689751,53.93486 -65.823331,52.91612 z"
     id="path3083"
     inkscape:connector-curvature="0"
     sodipodi:nodetypes="aaaaaaaaaaaaaaaaaaaaaaaaaaaaaaaaaaaazzzaaaaaaaaaasaaaaaaaaaaaaaaaaaaaaaaaaaaaaaaaa" />
  <path
     style="fill:#000000"
     d=""
     id="path3065"
     inkscape:connector-curvature="0" />
</svg>
